# xmcd
#
# Track frame offsets:
#	150
#	12233
#	24703
#	44700
#	59201
#	76767
#	92277
#	109315
#	122037
#	135720
#	151465
#
# Disc length: 2274 seconds
#
# Revision: 0
# Processed by: cddbd v1.5.2PL0 Copyright (c) Steve Scherf et al.
# Submitted via: dBpowerAMP V4.0
#
DISCID=9108e00b
DTITLE=Candy Coburn - Rev It Up
DYEAR=2006
DGENRE=Country
TTITLE0=Rev It Up
TTITLE1=My Lucky Life
TTITLE2=Nothin New
TTITLE3=Hall of Fame
TTITLE4=Hard to Be Good in Texas (with Jon Randall)
TTITLE5=Even in the Hard Times
TTITLE6=Big Dream in a Little Town
TTITLE7=Waitn for the Light to Change
TTITLE8=Rockin a Mile a Minute
TTITLE9=31derful
TTITLE10=Fire on the Mountain (with George McCorkle)
EXTD=
EXTT0=
EXTT1=
EXTT2=
EXTT3=
EXTT4=
EXTT5=
EXTT6=
EXTT7=
EXTT8=
EXTT9=
EXTT10=
PLAYORDER=
